<?xml version="1.0" encoding="UTF-8"?>
<svg id="Layer_2" data-name="Layer 2" xmlns="http://www.w3.org/2000/svg" xmlns:xlink="http://www.w3.org/1999/xlink" viewBox="0 0 898.37 749.68">
  <defs>
    <style>
      .cls-1 {
        fill: #262b31;
      }

      .cls-2 {
        fill: url(#linear-gradient);
        isolation: isolate;
      }
    </style>
    <linearGradient id="linear-gradient" x1="-774.63" y1="556.18" x2="-291.69" y2="556.18" gradientTransform="translate(-291.69) rotate(-180) scale(1 -1)" gradientUnits="userSpaceOnUse">
      <stop offset=".1" stop-color="#000" stop-opacity=".7"/>
      <stop offset=".9" stop-color="#000" stop-opacity=".2"/>
    </linearGradient>
  </defs>
  <g id="Layer_1-2" data-name="Layer 1">
    <g>
      <path class="cls-1" d="M.94,631.74C19.28,444.69,278.61,121.54,373.79,31.3,394.75,10.92,421.82,0,449.32,0c27.51,0,53.26,10.92,74.22,31.3,66.36,64.78,283.79,318.05,353.2,512.38h0c10.48,29.84,17.9,58.95,20.52,85.15,3.49,35.66-1.31,66.23-13.97,90.25-10.48,19.65-24.89,29.84-42.79,29.84-48.9,0-119.63-78.6-194.72-162.3-73.35-82.24-149.75-166.67-196.9-166.67-10.04,0-21.39,4.37-33.18,10.92-.55,.3-.54,.55-.87,.73-14.84,8.73-30.56,21.11-48.03,37.12-1.75,1.46-3.49,3.64-5.24,5.09-6.99,6.55-13.97,13.1-20.96,20.38-26.63,26.93-54.14,58.23-81.64,88.79-37.98,42.94-75.09,84.43-108.71,115.72-34.05,31.3-64.62,50.95-90.37,50.95-18.77,0-34.05-10.92-45.41-32.02-12.22-21.83-16.59-50.95-13.53-85.88Z"/>
      <path class="cls-2" d="M21.63,544.4h0c-10.91,29.84-17.9,58.95-20.52,85.15-3.49,35.66,1.31,66.23,13.97,90.25,10.48,19.65,24.9,29.17,42.79,29.84,52.63,1.98,121.12-76.91,196.61-161.6,73.95-81.95,147.72-167.26,194.41-168.1,9.6-.17,21.84,3.52,34.06,10.8-103.47-72.05-296.29-146.17-461.32,113.66Z"/>
    </g>
  </g>
</svg>